<svg id="Layer_1" data-name="Layer 1" xmlns="http://www.w3.org/2000/svg" xmlns:xlink="http://www.w3.org/1999/xlink" viewBox="0 0 323 284.4"><defs><style>.cls-1{fill:none;}.cls-2{fill:#231f20;}.cls-3{fill:#27aae1;}.cls-4{clip-path:url(#clip-path);}.cls-5{fill:#00247f;}.cls-6{fill:#002580;}.cls-7{fill:#012680;}.cls-8{fill:#012781;}.cls-9{fill:#012882;}.cls-10{fill:#012983;}.cls-11{fill:#022a83;}.cls-12{fill:#022b84;}.cls-13{fill:#022c85;}.cls-14{fill:#032d86;}.cls-15{fill:#032e86;}.cls-16{fill:#032f87;}.cls-17{fill:#043088;}.cls-18{fill:#043189;}.cls-19{fill:#043289;}.cls-20{fill:#04338a;}.cls-21{fill:#05348b;}.cls-22{fill:#05358c;}.cls-23{fill:#05368c;}.cls-24{fill:#06378d;}.cls-25{fill:#06388e;}.cls-26{fill:#06398e;}.cls-27{fill:#063a8f;}.cls-28{fill:#073b90;}.cls-29{fill:#073c91;}.cls-30{fill:#073d91;}.cls-31{fill:#083e92;}.cls-32{fill:#083f93;}.cls-33{fill:#084094;}.cls-34{fill:#094194;}.cls-35{fill:#094295;}.cls-36{fill:#094396;}.cls-37{fill:#094497;}.cls-38{fill:#0a4597;}.cls-39{fill:#0a4698;}.cls-40{fill:#0a4799;}.cls-41{fill:#0b489a;}.cls-42{fill:#0b499a;}.cls-43{fill:#0b4a9b;}.cls-44{fill:#0b4b9c;}.cls-45{fill:#0c4c9c;}.cls-46{fill:#0c4d9d;}.cls-47{fill:#0c4e9e;}.cls-48{fill:#0d4f9f;}.cls-49{fill:#0d509f;}.cls-50{fill:#0d51a0;}.cls-51{fill:#0d52a1;}.cls-52{fill:#0e53a2;}.cls-53{fill:#0e54a2;}.cls-54{fill:#0e55a3;}.cls-55{fill:#0f56a4;}.cls-56{fill:#0f57a5;}.cls-57{fill:#0f58a5;}.cls-58{fill:#1059a6;}.cls-59{fill:#105aa7;}.cls-60{fill:#105ba8;}.cls-61{fill:#105ca8;}.cls-62{fill:#115da9;}.cls-63{fill:#115eaa;}.cls-64{fill:#115faa;}.cls-65{fill:#1260ab;}.cls-66{fill:#1261ac;}.cls-67{fill:#1262ad;}.cls-68{fill:#1263ad;}.cls-69{fill:#1364ae;}.cls-70{fill:#1365af;}.cls-71{fill:#1366b0;}.cls-72{fill:#1468b0;}.cls-73{fill:#1469b1;}.cls-74{fill:#146ab2;}.cls-75{fill:#156bb3;}.cls-76{fill:#156cb3;}.cls-77{fill:#156db4;}.cls-78{fill:#156eb5;}.cls-79{fill:#166fb6;}.cls-80{fill:#1670b6;}.cls-81{fill:#1671b7;}.cls-82{fill:#1772b8;}.cls-83{fill:#1773b8;}.cls-84{fill:#1774b9;}.cls-85{fill:#1775ba;}.cls-86{fill:#1876bb;}.cls-87{fill:#1877bb;}.cls-88{fill:#1878bc;}.cls-89{fill:#1979bd;}.cls-90{fill:#197abe;}.cls-91{fill:#197bbe;}.cls-92{fill:#1a7cbf;}.cls-93{fill:#1a7dc0;}.cls-94{fill:#1a7ec1;}.cls-95{fill:#1a7fc1;}.cls-96{fill:#1b80c2;}.cls-97{fill:#1b81c3;}.cls-98{fill:#1b82c4;}.cls-99{fill:#1c83c4;}.cls-100{fill:#1c84c5;}.cls-101{fill:#1c85c6;}.cls-102{fill:#1c86c6;}.cls-103{fill:#1d87c7;}.cls-104{fill:#1d88c8;}.cls-105{fill:#1d89c9;}.cls-106{fill:#1e8ac9;}.cls-107{fill:#1e8bca;}.cls-108{fill:#1e8ccb;}.cls-109{clip-path:url(#clip-path-2);}.cls-110{fill:#aafdff;}.cls-111{fill:#a9fcff;}.cls-112{fill:#a8fcff;}.cls-113{fill:#a7fbfe;}.cls-114{fill:#a6fafe;}.cls-115{fill:#a5fafe;}.cls-116{fill:#a4f9fe;}.cls-117{fill:#a3f9fd;}.cls-118{fill:#a2f8fd;}.cls-119{fill:#a1f7fd;}.cls-120{fill:#a0f7fd;}.cls-121{fill:#9ff6fc;}.cls-122{fill:#9ef5fc;}.cls-123{fill:#9df5fc;}.cls-124{fill:#9cf4fc;}.cls-125{fill:#9bf3fc;}.cls-126{fill:#9af3fb;}.cls-127{fill:#99f2fb;}.cls-128{fill:#98f2fb;}.cls-129{fill:#97f1fb;}.cls-130{fill:#96f0fa;}.cls-131{fill:#95f0fa;}.cls-132{fill:#94effa;}.cls-133{fill:#93eefa;}.cls-134{fill:#92eef9;}.cls-135{fill:#91edf9;}.cls-136{fill:#90ecf9;}.cls-137{fill:#8fecf9;}.cls-138{fill:#8eebf9;}.cls-139{fill:#8deaf8;}.cls-140{fill:#8ceaf8;}.cls-141{fill:#8be9f8;}.cls-142{fill:#8ae9f8;}.cls-143{fill:#89e8f7;}.cls-144{fill:#88e7f7;}.cls-145{fill:#87e7f7;}.cls-146{fill:#86e6f7;}.cls-147{fill:#85e5f6;}.cls-148{fill:#84e5f6;}.cls-149{fill:#83e4f6;}.cls-150{fill:#82e3f6;}.cls-151{fill:#81e3f6;}.cls-152{fill:#80e2f5;}.cls-153{fill:#7fe2f5;}.cls-154{fill:#7ee1f5;}.cls-155{fill:#7de0f5;}.cls-156{fill:#7ce0f4;}.cls-157{fill:#7bdff4;}.cls-158{fill:#7adef4;}.cls-159{fill:#79def4;}.cls-160{fill:#78ddf3;}.cls-161{fill:#77dcf3;}.cls-162{fill:#76dcf3;}.cls-163{fill:#75dbf3;}.cls-164{fill:#74dbf3;}.cls-165{fill:#73daf2;}.cls-166{fill:#72d9f2;}.cls-167{fill:#71d9f2;}.cls-168{fill:#70d8f2;}.cls-169{fill:#6fd7f1;}.cls-170{fill:#6ed7f1;}.cls-171{fill:#6dd6f1;}.cls-172{fill:#6cd5f1;}.cls-173{fill:#6bd5f0;}.cls-174{fill:#6ad4f0;}.cls-175{fill:#69d4f0;}.cls-176{fill:#67d3f0;}.cls-177{fill:#66d2f0;}.cls-178{fill:#65d2ef;}.cls-179{fill:#64d1ef;}.cls-180{fill:#63d0ef;}.cls-181{fill:#62d0ef;}.cls-182{fill:#61cfee;}.cls-183{fill:#60ceee;}.cls-184{fill:#5fceee;}.cls-185{fill:#5ecdee;}.cls-186{fill:#5dcced;}.cls-187{fill:#5ccced;}.cls-188{fill:#5bcbed;}.cls-189{fill:#5acbed;}.cls-190{fill:#59caed;}.cls-191{fill:#58c9ec;}.cls-192{fill:#57c9ec;}.cls-193{fill:#56c8ec;}.cls-194{fill:#55c7ec;}.cls-195{fill:#54c7eb;}.cls-196{fill:#53c6eb;}.cls-197{fill:#52c5eb;}.cls-198{fill:#51c5eb;}.cls-199{fill:#50c4ea;}.cls-200{fill:#4fc4ea;}.cls-201{fill:#4ec3ea;}.cls-202{fill:#4dc2ea;}.cls-203{fill:#4cc2ea;}.cls-204{fill:#4bc1e9;}.cls-205{fill:#4ac0e9;}.cls-206{fill:#49c0e9;}.cls-207{fill:#48bfe9;}.cls-208{fill:#47bee8;}.cls-209{fill:#46bee8;}.cls-210{fill:#45bde8;}.cls-211{fill:#44bde8;}.cls-212{fill:#43bce7;}.cls-213{fill:#42bbe7;}.cls-214{fill:#41bbe7;}.cls-215{fill:#40bae7;}.cls-216{fill:#3fb9e7;}.cls-217{fill:#3eb9e6;}.cls-218{fill:#3db8e6;}.cls-219{fill:#3cb7e6;}.cls-220{fill:#3bb7e6;}.cls-221{fill:#3ab6e5;}.cls-222{fill:#39b5e5;}.cls-223{fill:#38b5e5;}.cls-224{fill:#37b4e5;}.cls-225{fill:#36b4e4;}.cls-226{fill:#35b3e4;}.cls-227{fill:#34b2e4;}.cls-228{fill:#33b2e4;}.cls-229{fill:#32b1e4;}.cls-230{fill:#31b0e3;}.cls-231{fill:#30b0e3;}.cls-232{fill:#2fafe3;}.cls-233{fill:#2eaee3;}.cls-234{fill:#2daee2;}.cls-235{fill:#2cade2;}.cls-236{fill:#2bade2;}.cls-237{fill:#2aace2;}.cls-238{fill:#29abe1;}.cls-239{fill:#28abe1;}</style><clipPath id="clip-path" transform="translate(-4.1 -5.4)"><polygon class="cls-1" points="123.94 215.3 165.6 189.58 207.26 215.3 123.94 215.3"/></clipPath><clipPath id="clip-path-2" transform="translate(-4.1 -5.4)"><polygon class="cls-1" points="165.6 147.6 165.6 189.58 207.26 215.3 165.6 147.6"/></clipPath></defs><title>elevated2</title><polygon class="cls-2" points="228.41 246.94 246.54 246.94 246.54 253.54 228.41 253.54 228.41 269.08 252.83 269.08 252.83 235.77 228.41 235.77 228.41 246.94"/><polygon class="cls-2" points="169.21 257.49 179.75 257.49 174.82 246.2 169.21 257.49"/><path class="cls-2" d="M267.86,241.17H264v33.31h4a25.4,25.4,0,0,0,7.06-1,16,16,0,0,0,10.86-15.68,16.18,16.18,0,0,0-5.13-12.43C277.78,242.68,273.48,241.28,267.86,241.17Z" transform="translate(-4.1 -5.4)"/><path class="cls-2" d="M165.6,5.4,4.1,289.8h323Zm0,45.13L268.07,222.42H231.59l-66-106.66-66,106.66H63.13ZM130.35,251.15v6.61H112.23v15.54h21.63v6.63H46V233.35h25.7V240H53v11.19H71.13v6.61H53v15.56h8.53v0H79.36V233.35h7v39.94H105.2V233.35h31.87l12.88,29.51,14.69-29.51h7.69L149.8,279.92l-17.52-40h-20v11.19Zm61.45,30-5.06-11.6H170l-5.77,11.6h-7.69l22.53-46.57,20.42,46.57Zm93.63-5.91a21.94,21.94,0,0,1-7.9,4.61,26.58,26.58,0,0,1-6,1.08v.21h-46V241.17H210.08v39.94h-7v-40H192.34v-6.61h76.94v.07a31.2,31.2,0,0,1,8.53,1.32,20.79,20.79,0,0,1,7.93,4.61q7.21,6.58,7.21,17.28T285.44,275.2Z" transform="translate(-4.1 -5.4)"/><polygon class="cls-3" points="119.84 209.9 203.16 209.9 161.5 142.2 119.84 209.9"/><g class="cls-4"><polygon class="cls-5" points="119.84 205.01 203.16 209.4 203.16 209.9 119.84 209.9 119.84 205.01"/><polygon class="cls-5" points="119.84 204.77 203.16 209.16 203.16 209.4 119.84 205.01 119.84 204.77"/><polygon class="cls-6" points="119.84 204.53 203.16 208.91 203.16 209.16 119.84 204.77 119.84 204.53"/><polygon class="cls-7" points="119.84 204.29 203.16 208.67 203.16 208.91 119.84 204.53 119.84 204.29"/><polygon class="cls-8" points="119.84 204.04 203.16 208.43 203.16 208.67 119.84 204.29 119.84 204.04"/><polygon class="cls-9" points="119.84 203.8 203.16 208.19 203.16 208.43 119.84 204.04 119.84 203.8"/><polygon class="cls-10" points="119.84 203.56 203.16 207.94 203.16 208.19 119.84 203.8 119.84 203.56"/><polygon class="cls-11" points="119.84 203.32 203.16 207.7 203.16 207.94 119.84 203.56 119.84 203.32"/><polygon class="cls-12" points="119.84 203.07 203.16 207.46 203.16 207.7 119.84 203.32 119.84 203.07"/><polygon class="cls-13" points="119.84 202.83 203.16 207.22 203.16 207.46 119.84 203.07 119.84 202.83"/><polygon class="cls-14" points="119.84 202.59 203.16 206.97 203.16 207.22 119.84 202.83 119.84 202.59"/><polygon class="cls-15" points="119.84 202.35 203.16 206.73 203.16 206.97 119.84 202.59 119.84 202.35"/><polygon class="cls-16" points="119.84 202.1 203.16 206.49 203.16 206.73 119.84 202.35 119.84 202.1"/><polygon class="cls-17" points="119.84 201.86 203.16 206.25 203.16 206.49 119.84 202.1 119.84 201.86"/><polygon class="cls-18" points="119.84 201.62 203.16 206 203.16 206.25 119.84 201.86 119.84 201.62"/><polygon class="cls-19" points="119.84 201.38 203.16 205.76 203.16 206 119.84 201.62 119.84 201.38"/><polygon class="cls-20" points="119.84 201.13 203.16 205.52 203.16 205.76 119.84 201.38 119.84 201.13"/><polygon class="cls-21" points="119.84 200.89 203.16 205.28 203.16 205.52 119.84 201.13 119.84 200.89"/><polygon class="cls-22" points="119.84 200.65 203.16 205.03 203.16 205.28 119.84 200.89 119.84 200.65"/><polygon class="cls-23" points="119.84 200.41 203.16 204.79 203.16 205.03 119.84 200.65 119.84 200.41"/><polygon class="cls-24" points="119.84 200.16 203.16 204.55 203.16 204.79 119.84 200.41 119.84 200.16"/><polygon class="cls-25" points="119.84 199.92 203.16 204.31 203.16 204.55 119.84 200.16 119.84 199.92"/><polygon class="cls-26" points="119.84 199.68 203.16 204.06 203.16 204.31 119.84 199.92 119.84 199.68"/><polygon class="cls-27" points="119.84 199.44 203.16 203.82 203.16 204.06 119.84 199.68 119.84 199.44"/><polygon class="cls-28" points="119.84 199.19 203.16 203.58 203.16 203.82 119.84 199.44 119.84 199.19"/><polygon class="cls-29" points="119.84 198.95 203.16 203.34 203.16 203.58 119.84 199.19 119.84 198.95"/><polygon class="cls-30" points="119.84 198.71 203.16 203.09 203.16 203.34 119.84 198.95 119.84 198.71"/><polygon class="cls-31" points="119.84 198.47 203.16 202.85 203.16 203.09 119.84 198.71 119.84 198.47"/><polygon class="cls-32" points="119.84 198.22 203.16 202.61 203.16 202.85 119.84 198.47 119.84 198.22"/><polygon class="cls-33" points="119.84 197.98 203.16 202.37 203.16 202.61 119.84 198.22 119.84 197.98"/><polygon class="cls-34" points="119.84 197.74 203.16 202.12 203.16 202.37 119.84 197.98 119.84 197.74"/><polygon class="cls-35" points="119.84 197.5 203.16 201.88 203.16 202.12 119.84 197.74 119.84 197.5"/><polygon class="cls-36" points="119.84 197.25 203.16 201.64 203.16 201.88 119.84 197.5 119.84 197.25"/><polygon class="cls-37" points="119.84 197.01 203.16 201.4 203.16 201.64 119.84 197.25 119.84 197.01"/><polygon class="cls-38" points="119.84 196.77 203.16 201.15 203.16 201.4 119.84 197.01 119.84 196.77"/><polygon class="cls-39" points="119.84 196.53 203.16 200.91 203.16 201.15 119.84 196.77 119.84 196.53"/><polygon class="cls-40" points="119.84 196.28 203.16 200.67 203.16 200.91 119.84 196.53 119.84 196.28"/><polygon class="cls-41" points="119.84 196.04 203.16 200.43 203.16 200.67 119.84 196.28 119.84 196.04"/><polygon class="cls-42" points="119.84 195.8 203.16 200.18 203.16 200.43 119.84 196.04 119.84 195.8"/><polygon class="cls-43" points="119.84 195.56 203.16 199.94 203.16 200.18 119.84 195.8 119.84 195.56"/><polygon class="cls-44" points="119.84 195.31 203.16 199.7 203.16 199.94 119.84 195.56 119.84 195.31"/><polygon class="cls-45" points="119.84 195.07 203.16 199.46 203.16 199.7 119.84 195.31 119.84 195.07"/><polygon class="cls-46" points="119.84 194.83 203.16 199.21 203.16 199.46 119.84 195.07 119.84 194.83"/><polygon class="cls-47" points="119.84 194.58 203.16 198.97 203.16 199.21 119.84 194.83 119.84 194.58"/><polygon class="cls-48" points="119.84 194.34 203.16 198.73 203.16 198.97 119.84 194.58 119.84 194.34"/><polygon class="cls-49" points="119.84 194.1 203.16 198.48 203.16 198.73 119.84 194.34 119.84 194.1"/><polygon class="cls-50" points="119.84 193.86 203.16 198.24 203.16 198.48 119.84 194.1 119.84 193.86"/><polygon class="cls-51" points="119.84 193.61 203.16 198 203.16 198.24 119.84 193.86 119.84 193.61"/><polygon class="cls-52" points="119.84 193.37 203.16 197.76 203.16 198 119.84 193.61 119.84 193.37"/><polygon class="cls-53" points="119.84 193.13 203.16 197.51 203.16 197.76 119.84 193.37 119.84 193.13"/><polygon class="cls-54" points="119.84 192.89 203.16 197.27 203.16 197.51 119.84 193.13 119.84 192.89"/><polygon class="cls-55" points="119.84 192.64 203.16 197.03 203.16 197.27 119.84 192.89 119.84 192.64"/><polygon class="cls-56" points="119.84 192.4 203.16 196.79 203.16 197.03 119.84 192.64 119.84 192.4"/><polygon class="cls-57" points="119.84 192.16 203.16 196.54 203.16 196.79 119.84 192.4 119.84 192.16"/><polygon class="cls-58" points="119.84 191.92 203.16 196.3 203.16 196.54 119.84 192.16 119.84 191.92"/><polygon class="cls-59" points="119.84 191.67 203.16 196.06 203.16 196.3 119.84 191.92 119.84 191.67"/><polygon class="cls-60" points="119.84 191.43 203.16 195.82 203.16 196.06 119.84 191.67 119.84 191.43"/><polygon class="cls-61" points="119.84 191.19 203.16 195.57 203.16 195.82 119.84 191.43 119.84 191.19"/><polygon class="cls-62" points="119.84 190.95 203.16 195.33 203.16 195.57 119.84 191.19 119.84 190.95"/><polygon class="cls-63" points="119.84 190.7 203.16 195.09 203.16 195.33 119.84 190.95 119.84 190.7"/><polygon class="cls-64" points="119.84 190.46 203.16 194.85 203.16 195.09 119.84 190.7 119.84 190.46"/><polygon class="cls-65" points="119.84 190.22 203.16 194.6 203.16 194.85 119.84 190.46 119.84 190.22"/><polygon class="cls-66" points="119.84 189.98 203.16 194.36 203.16 194.6 119.84 190.22 119.84 189.98"/><polygon class="cls-67" points="119.84 189.73 203.16 194.12 203.16 194.36 119.84 189.98 119.84 189.73"/><polygon class="cls-68" points="119.84 189.49 203.16 193.88 203.16 194.12 119.84 189.73 119.84 189.49"/><polygon class="cls-69" points="119.84 189.25 203.16 193.63 203.16 193.88 119.84 189.49 119.84 189.25"/><polygon class="cls-70" points="119.84 189.01 203.16 193.39 203.16 193.63 119.84 189.25 119.84 189.01"/><polygon class="cls-71" points="119.84 188.76 203.16 193.15 203.16 193.39 119.84 189.01 119.84 188.76"/><polygon class="cls-72" points="119.84 188.52 203.16 192.91 203.16 193.15 119.84 188.76 119.84 188.52"/><polygon class="cls-73" points="119.84 188.28 203.16 192.66 203.16 192.91 119.84 188.52 119.84 188.28"/><polygon class="cls-74" points="119.84 188.03 203.16 192.42 203.16 192.66 119.84 188.28 119.84 188.03"/><polygon class="cls-75" points="119.84 187.79 203.16 192.18 203.16 192.42 119.84 188.03 119.84 187.79"/><polygon class="cls-76" points="119.84 187.55 203.16 191.94 203.16 192.18 119.84 187.79 119.84 187.55"/><polygon class="cls-77" points="119.84 187.31 203.16 191.69 203.16 191.94 119.84 187.55 119.84 187.31"/><polygon class="cls-78" points="119.84 187.06 203.16 191.45 203.16 191.69 119.84 187.31 119.84 187.06"/><polygon class="cls-79" points="119.84 186.82 203.16 191.21 203.16 191.45 119.84 187.06 119.84 186.82"/><polygon class="cls-80" points="119.84 186.58 203.16 190.97 203.16 191.21 119.84 186.82 119.84 186.58"/><polygon class="cls-81" points="119.84 186.34 203.16 190.72 203.16 190.97 119.84 186.58 119.84 186.34"/><polygon class="cls-82" points="119.84 186.09 203.16 190.48 203.16 190.72 119.84 186.34 119.84 186.09"/><polygon class="cls-83" points="119.84 185.85 203.16 190.24 203.16 190.48 119.84 186.09 119.84 185.85"/><polygon class="cls-84" points="119.84 185.61 203.16 190 203.16 190.24 119.84 185.85 119.84 185.61"/><polygon class="cls-85" points="119.84 185.37 203.16 189.75 203.16 190 119.84 185.61 119.84 185.37"/><polygon class="cls-86" points="119.84 185.13 203.16 189.51 203.16 189.75 119.84 185.37 119.84 185.13"/><polygon class="cls-87" points="119.84 184.88 203.16 189.27 203.16 189.51 119.84 185.13 119.84 184.88"/><polygon class="cls-88" points="119.84 184.64 203.16 189.03 203.16 189.27 119.84 184.88 119.84 184.64"/><polygon class="cls-89" points="119.84 184.4 203.16 188.78 203.16 189.03 119.84 184.64 119.84 184.4"/><polygon class="cls-90" points="120.26 184.18 203.16 188.54 203.16 188.78 119.84 184.4 119.84 184.18 120.26 184.18"/><polygon class="cls-91" points="124.86 184.18 203.16 188.3 203.16 188.54 120.26 184.18 124.86 184.18"/><polygon class="cls-92" points="129.47 184.18 203.16 188.05 203.16 188.3 124.86 184.18 129.47 184.18"/><polygon class="cls-93" points="134.08 184.18 203.16 187.81 203.16 188.05 129.47 184.18 134.08 184.18"/><polygon class="cls-94" points="138.69 184.18 203.16 187.57 203.16 187.81 134.08 184.18 138.69 184.18"/><polygon class="cls-95" points="143.3 184.18 203.16 187.33 203.16 187.57 138.69 184.18 143.3 184.18"/><polygon class="cls-96" points="147.91 184.18 203.16 187.08 203.16 187.33 143.3 184.18 147.91 184.18"/><polygon class="cls-97" points="152.52 184.18 203.16 186.84 203.16 187.08 147.91 184.18 152.52 184.18"/><polygon class="cls-98" points="157.13 184.18 203.16 186.6 203.16 186.84 152.52 184.18 157.13 184.18"/><polygon class="cls-99" points="161.73 184.18 203.16 186.36 203.16 186.6 157.13 184.18 161.73 184.18"/><polygon class="cls-100" points="166.34 184.18 203.16 186.11 203.16 186.36 161.73 184.18 166.34 184.18"/><polygon class="cls-101" points="170.95 184.18 203.16 185.87 203.16 186.11 166.34 184.18 170.95 184.18"/><polygon class="cls-102" points="175.56 184.18 203.16 185.63 203.16 185.87 170.95 184.18 175.56 184.18"/><polygon class="cls-103" points="180.17 184.18 203.16 185.39 203.16 185.63 175.56 184.18 180.17 184.18"/><polygon class="cls-104" points="184.78 184.18 203.16 185.14 203.16 185.39 180.17 184.18 184.78 184.18"/><polygon class="cls-105" points="189.39 184.18 203.16 184.9 203.16 185.14 184.78 184.18 189.39 184.18"/><polygon class="cls-106" points="194 184.18 203.16 184.66 203.16 184.9 189.39 184.18 194 184.18"/><polygon class="cls-107" points="198.6 184.18 203.16 184.42 203.16 184.66 194 184.18 198.6 184.18"/><polygon class="cls-108" points="203.16 184.42 198.6 184.18 203.16 184.18 203.16 184.42"/></g><g class="cls-109"><polygon class="cls-110" points="166.15 142.2 174.44 154.51 161.5 163.22 161.5 142.2 166.15 142.2"/><polygon class="cls-110" points="174.44 154.51 174.59 154.74 161.5 163.55 161.5 163.22 174.44 154.51"/><polygon class="cls-111" points="174.59 154.74 174.75 154.97 161.5 163.88 161.5 163.55 174.59 154.74"/><polygon class="cls-112" points="174.75 154.97 174.9 155.19 161.5 164.21 161.5 163.88 174.75 154.97"/><polygon class="cls-113" points="174.9 155.19 175.05 155.42 161.5 164.54 161.5 164.21 174.9 155.19"/><polygon class="cls-114" points="175.05 155.42 175.2 155.64 161.5 164.87 161.5 164.54 175.05 155.42"/><polygon class="cls-115" points="175.2 155.64 175.35 155.87 161.5 165.19 161.5 164.87 175.2 155.64"/><polygon class="cls-116" points="175.35 155.87 175.51 156.09 161.5 165.52 161.5 165.19 175.35 155.87"/><polygon class="cls-117" points="175.51 156.09 175.66 156.32 161.5 165.85 161.5 165.52 175.51 156.09"/><polygon class="cls-118" points="175.66 156.32 175.81 156.54 161.5 166.18 161.5 165.85 175.66 156.32"/><polygon class="cls-119" points="175.81 156.54 175.96 156.77 161.5 166.5 161.5 166.18 175.81 156.54"/><polygon class="cls-120" points="175.96 156.77 176.11 157 161.5 166.83 161.5 166.5 175.96 156.77"/><polygon class="cls-121" points="176.11 157 176.27 157.22 161.5 167.16 161.5 166.83 176.11 157"/><polygon class="cls-122" points="176.27 157.22 176.42 157.45 161.5 167.49 161.5 167.16 176.27 157.22"/><polygon class="cls-123" points="176.42 157.45 176.57 157.67 161.5 167.82 161.5 167.49 176.42 157.45"/><polygon class="cls-124" points="176.57 157.67 176.72 157.9 161.5 168.15 161.5 167.82 176.57 157.67"/><polygon class="cls-125" points="176.72 157.9 176.87 158.13 161.5 168.47 161.5 168.15 176.72 157.9"/><polygon class="cls-126" points="176.87 158.13 177.03 158.35 161.5 168.8 161.5 168.47 176.87 158.13"/><polygon class="cls-127" points="177.03 158.35 177.18 158.58 161.5 169.13 161.5 168.8 177.03 158.35"/><polygon class="cls-128" points="177.18 158.58 177.33 158.8 161.5 169.46 161.5 169.13 177.18 158.58"/><polygon class="cls-129" points="177.33 158.8 177.48 159.03 161.5 169.78 161.5 169.46 177.33 158.8"/><polygon class="cls-130" points="177.48 159.03 177.63 159.25 161.5 170.11 161.5 169.78 177.48 159.03"/><polygon class="cls-131" points="177.63 159.25 177.79 159.48 161.5 170.44 161.5 170.11 177.63 159.25"/><polygon class="cls-132" points="177.79 159.48 177.94 159.71 161.5 170.77 161.5 170.44 177.79 159.48"/><polygon class="cls-133" points="177.94 159.71 178.09 159.93 161.5 171.1 161.5 170.77 177.94 159.71"/><polygon class="cls-134" points="178.09 159.93 178.24 160.16 161.5 171.43 161.5 171.1 178.09 159.93"/><polygon class="cls-135" points="178.24 160.16 178.39 160.38 161.5 171.75 161.5 171.43 178.24 160.16"/><polygon class="cls-136" points="178.39 160.38 178.54 160.61 161.5 172.08 161.5 171.75 178.39 160.38"/><polygon class="cls-137" points="178.54 160.61 178.7 160.83 161.5 172.41 161.5 172.08 178.54 160.61"/><polygon class="cls-138" points="178.7 160.83 178.85 161.06 161.5 172.74 161.5 172.41 178.7 160.83"/><polygon class="cls-139" points="178.85 161.06 179 161.28 161.5 173.06 161.5 172.74 178.85 161.06"/><polygon class="cls-140" points="179 161.28 179.15 161.51 161.5 173.39 161.5 173.06 179 161.28"/><polygon class="cls-141" points="179.15 161.51 179.31 161.74 161.5 173.72 161.5 173.39 179.15 161.51"/><polygon class="cls-142" points="179.31 161.74 179.46 161.96 161.5 174.05 161.5 173.72 179.31 161.74"/><polygon class="cls-143" points="179.46 161.96 179.61 162.19 161.5 174.38 161.5 174.05 179.46 161.96"/><polygon class="cls-144" points="179.61 162.19 179.76 162.41 161.5 174.71 161.5 174.38 179.61 162.19"/><polygon class="cls-145" points="179.76 162.41 179.91 162.64 161.5 175.03 161.5 174.71 179.76 162.41"/><polygon class="cls-146" points="179.91 162.64 180.06 162.87 161.5 175.36 161.5 175.03 179.91 162.64"/><polygon class="cls-147" points="180.06 162.87 180.22 163.09 161.5 175.69 161.5 175.36 180.06 162.87"/><polygon class="cls-148" points="180.22 163.09 180.37 163.32 161.5 176.02 161.5 175.69 180.22 163.09"/><polygon class="cls-149" points="180.37 163.32 180.52 163.54 161.5 176.34 161.5 176.02 180.37 163.32"/><polygon class="cls-150" points="180.52 163.54 180.67 163.77 161.5 176.67 161.5 176.34 180.52 163.54"/><polygon class="cls-151" points="180.67 163.77 180.82 163.99 161.5 177 161.5 176.67 180.67 163.77"/><polygon class="cls-152" points="180.82 163.99 180.98 164.22 161.5 177.33 161.5 177 180.82 163.99"/><polygon class="cls-153" points="180.98 164.22 181.13 164.44 161.5 177.66 161.5 177.33 180.98 164.22"/><polygon class="cls-154" points="181.13 164.44 181.28 164.67 161.5 177.99 161.5 177.66 181.13 164.44"/><polygon class="cls-155" points="181.28 164.67 181.43 164.9 161.5 178.31 161.5 177.99 181.28 164.67"/><polygon class="cls-156" points="181.43 164.9 181.58 165.12 161.5 178.64 161.5 178.31 181.43 164.9"/><polygon class="cls-157" points="181.58 165.12 181.74 165.35 161.5 178.97 161.5 178.64 181.58 165.12"/><polygon class="cls-158" points="181.74 165.35 181.89 165.57 161.5 179.3 161.5 178.97 181.74 165.35"/><polygon class="cls-159" points="181.89 165.57 182.04 165.8 161.5 179.62 161.5 179.3 181.89 165.57"/><polygon class="cls-160" points="182.04 165.8 182.19 166.03 161.5 179.95 161.5 179.62 182.04 165.8"/><polygon class="cls-161" points="182.19 166.03 182.34 166.25 161.5 180.28 161.5 179.95 182.19 166.03"/><polygon class="cls-162" points="182.34 166.25 182.5 166.48 161.5 180.61 161.5 180.28 182.34 166.25"/><polygon class="cls-163" points="182.5 166.48 182.65 166.7 161.5 180.94 161.5 180.61 182.5 166.48"/><polygon class="cls-164" points="182.65 166.7 182.8 166.93 161.5 181.26 161.5 180.94 182.65 166.7"/><polygon class="cls-165" points="182.8 166.93 182.95 167.15 161.5 181.59 161.5 181.26 182.8 166.93"/><polygon class="cls-166" points="182.95 167.15 183.1 167.38 161.5 181.92 161.5 181.59 182.95 167.15"/><polygon class="cls-167" points="183.1 167.38 183.25 167.61 161.5 182.25 161.5 181.92 183.1 167.38"/><polygon class="cls-168" points="183.25 167.61 183.41 167.83 161.5 182.58 161.5 182.25 183.25 167.61"/><polygon class="cls-169" points="183.41 167.83 183.56 168.06 161.5 182.9 161.5 182.58 183.41 167.83"/><polygon class="cls-170" points="183.56 168.06 183.71 168.28 161.5 183.23 161.5 182.9 183.56 168.06"/><polygon class="cls-171" points="183.71 168.28 183.86 168.51 161.5 183.56 161.5 183.23 183.71 168.28"/><polygon class="cls-172" points="183.86 168.51 184.01 168.73 161.5 183.89 161.5 183.56 183.86 168.51"/><polygon class="cls-173" points="184.01 168.73 184.17 168.96 161.5 184.22 161.5 183.89 184.01 168.73"/><polygon class="cls-174" points="184.17 168.96 184.32 169.19 161.5 184.54 161.5 184.22 184.17 168.96"/><polygon class="cls-175" points="184.32 169.19 184.47 169.41 161.5 184.87 161.5 184.54 184.32 169.19"/><polygon class="cls-176" points="184.47 169.41 184.62 169.64 161.5 185.2 161.5 184.87 184.47 169.41"/><polygon class="cls-177" points="184.62 169.64 184.77 169.86 161.5 185.53 161.5 185.2 184.62 169.64"/><polygon class="cls-178" points="184.77 169.86 184.93 170.09 161.5 185.86 161.5 185.53 184.77 169.86"/><polygon class="cls-179" points="184.93 170.09 185.08 170.31 161.5 186.18 161.5 185.86 184.93 170.09"/><polygon class="cls-180" points="185.08 170.31 185.23 170.54 161.5 186.51 161.5 186.18 185.08 170.31"/><polygon class="cls-181" points="185.23 170.54 185.38 170.77 161.5 186.84 161.5 186.51 185.23 170.54"/><polygon class="cls-182" points="185.38 170.77 185.53 170.99 161.5 187.17 161.5 186.84 185.38 170.77"/><polygon class="cls-183" points="185.53 170.99 185.69 171.22 161.5 187.5 161.5 187.17 185.53 170.99"/><polygon class="cls-184" points="185.69 171.22 185.84 171.44 161.5 187.82 161.5 187.5 185.69 171.22"/><polygon class="cls-185" points="185.84 171.44 185.99 171.67 161.5 188.15 161.5 187.82 185.84 171.44"/><polygon class="cls-186" points="185.99 171.67 186.14 171.89 161.5 188.48 161.5 188.15 185.99 171.67"/><polygon class="cls-187" points="186.14 171.89 186.29 172.12 161.5 188.81 161.5 188.48 186.14 171.89"/><polygon class="cls-188" points="186.29 172.12 186.45 172.35 161.5 189.14 161.5 188.81 186.29 172.12"/><polygon class="cls-189" points="186.45 172.35 186.6 172.57 161.5 189.46 161.5 189.14 186.45 172.35"/><polygon class="cls-190" points="186.6 172.57 186.75 172.8 161.5 189.79 161.5 189.46 186.6 172.57"/><polygon class="cls-191" points="186.75 172.8 186.9 173.02 161.5 190.12 161.5 189.79 186.75 172.8"/><polygon class="cls-192" points="186.9 173.02 187.05 173.25 161.5 190.45 161.5 190.12 186.9 173.02"/><polygon class="cls-193" points="187.05 173.25 187.21 173.47 161.5 190.78 161.5 190.45 187.05 173.25"/><polygon class="cls-194" points="187.21 173.47 187.36 173.7 161.51 191.1 161.5 191.09 161.5 190.78 187.21 173.47"/><rect class="cls-195" x="163.03" y="187.78" width="31.16" height="0.27" transform="translate(-78.59 126.35) rotate(-33.94)"/><rect class="cls-196" x="163.18" y="188" width="31.16" height="0.27" transform="translate(-78.69 126.47) rotate(-33.94)"/><rect class="cls-197" x="163.33" y="188.23" width="31.16" height="0.27" transform="translate(-78.79 126.6) rotate(-33.94)"/><rect class="cls-198" x="163.48" y="188.46" width="31.16" height="0.27" transform="translate(-78.89 126.72) rotate(-33.94)"/><rect class="cls-199" x="163.63" y="188.68" width="31.16" height="0.27" transform="translate(-78.99 126.84) rotate(-33.94)"/><rect class="cls-200" x="163.79" y="188.91" width="31.16" height="0.27" transform="translate(-79.09 126.97) rotate(-33.94)"/><rect class="cls-201" x="163.94" y="189.13" width="31.16" height="0.27" transform="translate(-79.19 127.09) rotate(-33.94)"/><rect class="cls-202" x="164.09" y="189.36" width="31.16" height="0.27" transform="translate(-79.29 127.21) rotate(-33.94)"/><rect class="cls-203" x="164.24" y="189.58" width="31.16" height="0.27" transform="translate(-79.39 127.34) rotate(-33.94)"/><rect class="cls-204" x="164.39" y="189.81" width="31.16" height="0.27" transform="translate(-79.49 127.46) rotate(-33.94)"/><rect class="cls-205" x="164.55" y="190.04" width="31.16" height="0.27" transform="translate(-79.59 127.58) rotate(-33.94)"/><rect class="cls-206" x="164.7" y="190.26" width="31.16" height="0.27" transform="translate(-79.69 127.71) rotate(-33.94)"/><rect class="cls-207" x="164.85" y="190.49" width="31.16" height="0.27" transform="matrix(0.83, -0.56, 0.56, 0.83, -79.79, 127.83)"/><rect class="cls-208" x="165" y="190.71" width="31.16" height="0.27" transform="translate(-79.89 127.95) rotate(-33.94)"/><rect class="cls-209" x="165.15" y="190.94" width="31.16" height="0.27" transform="translate(-79.99 128.08) rotate(-33.94)"/><rect class="cls-210" x="165.31" y="191.16" width="31.16" height="0.27" transform="translate(-80.09 128.2) rotate(-33.94)"/><rect class="cls-211" x="165.46" y="191.39" width="31.16" height="0.27" transform="translate(-80.19 128.32) rotate(-33.94)"/><rect class="cls-212" x="165.61" y="191.62" width="31.16" height="0.27" transform="translate(-80.29 128.45) rotate(-33.94)"/><rect class="cls-213" x="165.76" y="191.84" width="31.16" height="0.27" transform="translate(-80.39 128.57) rotate(-33.94)"/><rect class="cls-214" x="165.91" y="192.07" width="31.16" height="0.27" transform="translate(-80.49 128.69) rotate(-33.94)"/><rect class="cls-215" x="166.07" y="192.29" width="31.16" height="0.27" transform="translate(-80.59 128.82) rotate(-33.94)"/><rect class="cls-216" x="166.22" y="192.52" width="31.16" height="0.27" transform="translate(-80.69 128.94) rotate(-33.94)"/><rect class="cls-217" x="166.37" y="192.74" width="31.16" height="0.27" transform="translate(-80.79 129.06) rotate(-33.94)"/><rect class="cls-218" x="166.52" y="192.97" width="31.16" height="0.27" transform="translate(-80.89 129.19) rotate(-33.94)"/><rect class="cls-219" x="166.67" y="193.2" width="31.16" height="0.27" transform="translate(-80.99 129.31) rotate(-33.94)"/><rect class="cls-220" x="166.83" y="193.42" width="31.16" height="0.27" transform="translate(-81.09 129.43) rotate(-33.94)"/><rect class="cls-221" x="166.98" y="193.65" width="31.16" height="0.27" transform="translate(-81.19 129.56) rotate(-33.94)"/><rect class="cls-222" x="167.13" y="193.87" width="31.16" height="0.27" transform="translate(-81.29 129.68) rotate(-33.94)"/><rect class="cls-223" x="167.28" y="194.1" width="31.16" height="0.27" transform="translate(-81.39 129.8) rotate(-33.94)"/><rect class="cls-224" x="167.43" y="194.33" width="31.16" height="0.27" transform="translate(-81.49 129.93) rotate(-33.94)"/><rect class="cls-225" x="167.59" y="194.55" width="31.16" height="0.27" transform="translate(-81.59 130.05) rotate(-33.94)"/><rect class="cls-226" x="167.74" y="194.78" width="31.16" height="0.27" transform="translate(-81.69 130.17) rotate(-33.94)"/><rect class="cls-227" x="167.89" y="195" width="31.16" height="0.27" transform="translate(-81.8 130.3) rotate(-33.94)"/><rect class="cls-228" x="168.04" y="195.23" width="31.16" height="0.27" transform="translate(-81.9 130.42) rotate(-33.94)"/><rect class="cls-229" x="168.19" y="195.45" width="31.16" height="0.27" transform="translate(-82 130.54) rotate(-33.94)"/><rect class="cls-230" x="168.34" y="195.68" width="31.16" height="0.27" transform="translate(-82.1 130.67) rotate(-33.94)"/><rect class="cls-231" x="168.5" y="195.91" width="31.16" height="0.27" transform="translate(-82.2 130.79) rotate(-33.94)"/><rect class="cls-232" x="168.65" y="196.13" width="31.16" height="0.27" transform="translate(-82.3 130.91) rotate(-33.94)"/><rect class="cls-233" x="168.8" y="196.36" width="31.16" height="0.27" transform="translate(-82.4 131.04) rotate(-33.94)"/><rect class="cls-234" x="168.95" y="196.58" width="31.16" height="0.27" transform="matrix(0.83, -0.56, 0.56, 0.83, -82.5, 131.16)"/><rect class="cls-235" x="169.1" y="196.81" width="31.16" height="0.27" transform="translate(-82.6 131.28) rotate(-33.94)"/><rect class="cls-236" x="169.26" y="197.03" width="31.16" height="0.27" transform="translate(-82.7 131.41) rotate(-33.94)"/><rect class="cls-237" x="169.41" y="197.26" width="31.16" height="0.27" transform="translate(-82.8 131.53) rotate(-33.94)"/><rect class="cls-238" x="169.56" y="197.49" width="31.16" height="0.27" transform="translate(-82.9 131.65) rotate(-33.94)"/><rect class="cls-239" x="169.71" y="197.71" width="31.16" height="0.27" transform="translate(-83 131.78) rotate(-33.94)"/><rect class="cls-3" x="169.86" y="197.94" width="31.16" height="0.27" transform="matrix(0.83, -0.56, 0.56, 0.83, -83.1, 131.9)"/><polygon class="cls-3" points="194.35 184.08 203.16 197.18 203.16 209.9 174.16 209.9 168.5 201.48 194.35 184.08"/></g></svg>